<svg xmlns="http://www.w3.org/2000/svg" viewBox="0 0 230 292" fill="none">

  <!-- ══ OVAL BORDER ══ -->
  <rect x="5" y="5" width="220" height="282" rx="110"
        fill="none" stroke="#a08820" stroke-width="2.5"/>

  <!-- ══ HORSE HEAD (gold, upper-right, facing right) ══ -->
  <path d="M 148,30 C 160,22 179,21 183,30 C 186,37 180,43 174,45
           C 185,51 193,62 195,76 C 197,87 192,98 186,104
           C 182,109 176,114 169,116 C 160,118 149,116 141,110
           C 133,104 128,94 128,82 C 128,68 134,54 144,45
           C 146,39 147,34 148,30 Z"
        stroke="#a08820" stroke-width="1.8" stroke-linejoin="round" stroke-linecap="round"/>

  <!-- Eye -->
  <ellipse cx="182" cy="64" rx="3" ry="2.5" fill="#a08820"/>

  <!-- Nostril -->
  <path d="M 187,99 C 184,103 182,102 184,99"
        stroke="#a08820" stroke-width="1.4" stroke-linecap="round"/>

  <!-- Mane strands -->
  <path d="M 147,34 C 133,40 119,43 105,44"
        stroke="#a08820" stroke-width="1.8" stroke-linecap="round"/>
  <path d="M 143,43 C 128,50 113,56 100,59"
        stroke="#a08820" stroke-width="1.6" stroke-linecap="round"/>
  <path d="M 137,53 C 122,61 107,68 95,72"
        stroke="#a08820" stroke-width="1.4" stroke-linecap="round"/>

  <!-- ══ CALLIGRAPHIC SD MONOGRAM (violet) ══ -->

  <!-- Letter S -->
  <path d="M 129,74 C 145,62 165,67 163,86 C 161,102 140,112 118,118
           C 92,126 73,140 75,159 C 77,174 93,186 115,186
           C 129,186 142,179 147,168"
        stroke="#72327a" stroke-width="6.5" stroke-linecap="round" stroke-linejoin="round"/>

  <!-- Letter D — vertical stroke -->
  <path d="M 83,76 C 81,116 81,152 83,188"
        stroke="#72327a" stroke-width="6.5" stroke-linecap="round"/>

  <!-- Letter D — bowl -->
  <path d="M 83,76 C 120,68 147,92 147,132 C 147,168 123,188 83,188"
        stroke="#72327a" stroke-width="6.5" stroke-linecap="round" stroke-linejoin="round"/>

</svg>
